# xmcd
#
# Track frame offsets: 
#        150
#        17215
#        42558
#        58003
#        73389
#        84903
#        111289
#        132052
#        162248
#        184347
#
# Disc length: 2823 seconds
#
# Revision: 1
# Processed by: cddbd v1.5.2PL0 Copyright (c) Steve Scherf et al.
# Submitted via: ExactAudioCopyFreeDBPlugin 1.0
#
DISCID=8d0b050a
DTITLE=Leonard Cohen - 10 Największych Ballad
DYEAR=2008
DGENRE=Blues
TTITLE0=Suzanne
TTITLE1=So Long, Marianne
TTITLE2=Bird On A Wire
TTITLE3=The Partisan
TTITLE4=Who By Fire
TTITLE5=First We Take Manhattan
TTITLE6=Hallelujah
TTITLE7=The Future
TTITLE8=In My Secret Life
TTITLE9=Dance Me to the End of Love
EXTD=
EXTT0=
EXTT1=
EXTT2=
EXTT3=
EXTT4=
EXTT5=
EXTT6=
EXTT7=
EXTT8=
EXTT9=
PLAYORDER=
